<?xml version="1.0" encoding="utf-8"?>
<!-- Generator: Adobe Illustrator 25.4.1, SVG Export Plug-In . SVG Version: 6.00 Build 0)  -->
<svg version="1.1" id="图层_1" xmlns="http://www.w3.org/2000/svg" xmlns:xlink="http://www.w3.org/1999/xlink" x="0px" y="0px"
	 viewBox="0 0 24 24" fill="#000">
<path class="st0" d="M11,13H6c-0.3,0-0.5-0.1-0.7-0.3C5.1,12.5,5,12.3,5,12s0.1-0.5,0.3-0.7C5.5,11.1,5.7,11,6,11h5V6
	c0-0.3,0.1-0.5,0.3-0.7C11.5,5.1,11.7,5,12,5s0.5,0.1,0.7,0.3C12.9,5.5,13,5.7,13,6v5h5c0.3,0,0.5,0.1,0.7,0.3
	c0.2,0.2,0.3,0.4,0.3,0.7s-0.1,0.5-0.3,0.7C18.5,12.9,18.3,13,18,13h-5v5c0,0.3-0.1,0.5-0.3,0.7C12.5,18.9,12.3,19,12,19
	s-0.5-0.1-0.7-0.3C11.1,18.5,11,18.3,11,18V13z"/>
</svg>
