<?xml version="1.0" encoding="utf-8"?>
<!-- Generator: Adobe Illustrator 25.4.1, SVG Export Plug-In . SVG Version: 6.00 Build 0)  -->
<svg version="1.1" id="图层_1" xmlns="http://www.w3.org/2000/svg" xmlns:xlink="http://www.w3.org/1999/xlink" x="0px" y="0px"
	 viewBox="0 0 24 24" fill="#000">
<path class="st0" d="M15.2,5c-0.3,0-0.6-0.1-0.9-0.4S14,4.1,14,3.7s0.1-0.6,0.4-0.9s0.5-0.4,0.9-0.4c0.4,0,0.6,0.1,0.9,0.4
	c0.2,0.2,0.4,0.5,0.4,0.9s-0.1,0.6-0.4,0.9C15.9,4.9,15.6,5,15.2,5z M15.2,21.5c-0.3,0-0.6-0.1-0.9-0.4S14,20.6,14,20.2
	s0.1-0.6,0.4-0.9s0.5-0.4,0.9-0.4c0.4,0,0.6,0.1,0.9,0.4c0.2,0.2,0.4,0.5,0.4,0.9s-0.1,0.6-0.4,0.9C15.9,21.4,15.6,21.5,15.2,21.5z
	 M19.2,8.5c-0.4,0-0.6-0.1-0.9-0.4C18.1,7.9,18,7.6,18,7.2c0-0.4,0.1-0.6,0.4-0.9C18.6,6.1,18.9,6,19.2,6s0.6,0.1,0.9,0.4
	s0.4,0.5,0.4,0.9c0,0.3-0.1,0.6-0.4,0.9C19.9,8.4,19.6,8.5,19.2,8.5z M19.2,18c-0.4,0-0.6-0.1-0.9-0.4c-0.2-0.2-0.4-0.5-0.4-0.9
	s0.1-0.6,0.4-0.9c0.2-0.2,0.5-0.4,0.9-0.4s0.6,0.1,0.9,0.4c0.2,0.2,0.4,0.5,0.4,0.9s-0.1,0.6-0.4,0.9S19.6,18,19.2,18z M20.8,13.2
	c-0.4,0-0.6-0.1-0.9-0.4c-0.2-0.2-0.4-0.5-0.4-0.9s0.1-0.6,0.4-0.9c0.2-0.2,0.5-0.4,0.9-0.4s0.6,0.1,0.9,0.4
	c0.2,0.2,0.4,0.5,0.4,0.9s-0.1,0.6-0.4,0.9C21.4,13.1,21.1,13.2,20.8,13.2z M2,12c0-2.6,0.9-4.9,2.6-6.8S8.5,2.3,11,2
	c0.3,0,0.5,0,0.7,0.2C11.9,2.5,12,2.7,12,3c0,0.3-0.1,0.5-0.3,0.7S11.3,4,11.1,4c-2,0.2-3.7,1.1-5,2.6S4,9.9,4,12
	c0,2.1,0.7,3.9,2,5.4s3,2.4,5,2.6c0.3,0,0.5,0.1,0.7,0.3c0.2,0.2,0.3,0.4,0.3,0.7c0,0.3-0.1,0.5-0.3,0.7C11.5,21.9,11.3,22,11,22
	c-2.6-0.2-4.7-1.3-6.4-3.2S2,14.6,2,12z M12,14c-0.6,0-1-0.2-1.4-0.6S10,12.6,10,12c0-0.1,0-0.2,0-0.3c0-0.1,0-0.2,0.1-0.3l-1.4-1.4
	C8.5,9.9,8.4,9.7,8.4,9.4s0.1-0.5,0.3-0.7c0.2-0.2,0.4-0.3,0.7-0.3c0.3,0,0.5,0.1,0.7,0.3l1.4,1.4c0.1,0,0.2,0,0.5-0.1
	c0.6,0,1,0.2,1.4,0.6S14,11.4,14,12s-0.2,1-0.6,1.4S12.6,14,12,14z"/>
</svg>
