<?xml version="1.0" encoding="utf-8"?>
<!-- Generator: Adobe Illustrator 25.4.1, SVG Export Plug-In . SVG Version: 6.00 Build 0)  -->
<svg version="1.1" id="图层_1" xmlns="http://www.w3.org/2000/svg" xmlns:xlink="http://www.w3.org/1999/xlink" x="0px" y="0px"
	 viewBox="0 0 24 24" fill="#000">
<path class="st0" d="M4,20.3c-0.3,0-0.5-0.1-0.7-0.3C3.1,19.8,3,19.6,3,19.3v-1c0-0.3,0.1-0.5,0.3-0.7c0.2-0.2,0.4-0.3,0.7-0.3
	s0.5,0.1,0.7,0.3C4.9,17.8,5,18,5,18.3v1c0,0.3-0.1,0.5-0.3,0.7C4.5,20.2,4.3,20.3,4,20.3z M8,20.3c-0.3,0-0.5-0.1-0.7-0.3
	C7.1,19.8,7,19.6,7,19.3v-5.5c0-0.3,0.1-0.5,0.3-0.7s0.4-0.3,0.7-0.3s0.5,0.1,0.7,0.3C8.9,13.3,9,13.5,9,13.8v5.5
	c0,0.3-0.1,0.5-0.3,0.7C8.5,20.2,8.3,20.3,8,20.3z M12,20.3c-0.3,0-0.5-0.1-0.7-0.3c-0.2-0.2-0.3-0.4-0.3-0.7v-3.5
	c0-0.3,0.1-0.5,0.3-0.7c0.2-0.2,0.4-0.3,0.7-0.3s0.5,0.1,0.7,0.3c0.2,0.2,0.3,0.4,0.3,0.7v3.5c0,0.3-0.1,0.5-0.3,0.7
	C12.5,20.2,12.3,20.3,12,20.3z M16,20.3c-0.3,0-0.5-0.1-0.7-0.3c-0.2-0.2-0.3-0.4-0.3-0.7v-5c0-0.3,0.1-0.5,0.3-0.7
	c0.2-0.2,0.4-0.3,0.7-0.3s0.5,0.1,0.7,0.3S17,14,17,14.3v5c0,0.3-0.1,0.5-0.3,0.7C16.5,20.2,16.3,20.3,16,20.3z M20,20.3
	c-0.3,0-0.5-0.1-0.7-0.3c-0.2-0.2-0.3-0.4-0.3-0.7v-9c0-0.3,0.1-0.5,0.3-0.7c0.2-0.2,0.4-0.3,0.7-0.3s0.5,0.1,0.7,0.3
	C20.9,9.8,21,10,21,10.3v9c0,0.3-0.1,0.5-0.3,0.7C20.5,20.2,20.3,20.3,20,20.3z M14,11.3c-0.3,0-0.5-0.1-0.8-0.1
	c-0.2-0.1-0.5-0.2-0.7-0.4L10,8.1l-5.3,5.3c-0.2,0.2-0.4,0.3-0.7,0.3s-0.5-0.1-0.7-0.3C3.1,13.2,3,13,3,12.7c0-0.3,0.1-0.5,0.3-0.7
	l5.3-5.3C8.8,6.5,9,6.4,9.2,6.3C9.5,6.2,9.7,6.1,10,6.1s0.5,0,0.8,0.1s0.5,0.2,0.7,0.4L14,9.3L19.3,4c0.2-0.2,0.4-0.3,0.7-0.3
	c0.3,0,0.5,0.1,0.7,0.3C20.9,4.2,21,4.5,21,4.7c0,0.3-0.1,0.5-0.3,0.7l-5.3,5.3c-0.2,0.2-0.4,0.3-0.7,0.4
	C14.5,11.2,14.3,11.3,14,11.3z"/>
</svg>
