<?xml version="1.0" encoding="utf-8"?>
<!-- Generator: Adobe Illustrator 25.4.1, SVG Export Plug-In . SVG Version: 6.00 Build 0)  -->
<svg version="1.1" id="图层_1" xmlns="http://www.w3.org/2000/svg" xmlns:xlink="http://www.w3.org/1999/xlink" x="0px" y="0px"
	 viewBox="0 0 24 24"  fill="#000">
<path d="M6,22.8c-0.5,0-1-0.2-1.4-0.6S4,21.4,4,20.8v-11c0-0.6,0.2-1,0.6-1.4C5,8,5.5,7.8,6,7.8h2
	c0.3,0,0.5,0.1,0.7,0.3C8.9,8.3,9,8.5,9,8.8S8.9,9.3,8.7,9.5C8.5,9.7,8.3,9.8,8,9.8H6v11h12v-11h-2c-0.3,0-0.5-0.1-0.7-0.3
	C15.1,9.3,15,9.1,15,8.8s0.1-0.5,0.3-0.7c0.2-0.2,0.4-0.3,0.7-0.3h2c0.6,0,1,0.2,1.4,0.6C19.8,8.8,20,9.2,20,9.8v11
	c0,0.6-0.2,1-0.6,1.4s-0.9,0.6-1.4,0.6H6z M11,4.6l-0.9,0.9C9.9,5.7,9.7,5.8,9.4,5.8S8.9,5.7,8.7,5.5C8.5,5.3,8.4,5.1,8.4,4.8
	c0-0.3,0.1-0.5,0.3-0.7l2.6-2.6c0.2-0.2,0.4-0.3,0.7-0.3s0.5,0.1,0.7,0.3l2.6,2.6c0.2,0.2,0.3,0.4,0.3,0.7s-0.1,0.5-0.3,0.7
	c-0.2,0.2-0.4,0.3-0.7,0.3c-0.3,0-0.5-0.1-0.7-0.3L13,4.6v10.2c0,0.3-0.1,0.5-0.3,0.7s-0.4,0.3-0.7,0.3s-0.5-0.1-0.7-0.3
	S11,15.1,11,14.8V4.6z"/>
</svg>
