<?xml version="1.0" encoding="utf-8"?>
<!-- Generator: Adobe Illustrator 25.4.1, SVG Export Plug-In . SVG Version: 6.00 Build 0)  -->
<svg version="1.1" id="图层_1" xmlns="http://www.w3.org/2000/svg" xmlns:xlink="http://www.w3.org/1999/xlink" x="0px" y="0px"
	 viewBox="0 0 24 24" fill="#000">
<path class="st0" d="M17,20c-0.3,0-0.5-0.1-0.7-0.3C16.1,19.5,16,19.3,16,19v-5c0-0.3,0.1-0.5,0.3-0.7c0.2-0.2,0.4-0.3,0.7-0.3h2
	c0.3,0,0.5,0.1,0.7,0.3c0.2,0.2,0.3,0.4,0.3,0.7v5c0,0.3-0.1,0.5-0.3,0.7C19.5,19.9,19.3,20,19,20H17z M11,20
	c-0.3,0-0.5-0.1-0.7-0.3C10.1,19.5,10,19.3,10,19V5c0-0.3,0.1-0.5,0.3-0.7C10.5,4.1,10.7,4,11,4h2c0.3,0,0.5,0.1,0.7,0.3
	C13.9,4.5,14,4.7,14,5v14c0,0.3-0.1,0.5-0.3,0.7C13.5,19.9,13.3,20,13,20H11z M5,20c-0.3,0-0.5-0.1-0.7-0.3C4.1,19.5,4,19.3,4,19v-9
	c0-0.3,0.1-0.5,0.3-0.7C4.5,9.1,4.7,9,5,9h2c0.3,0,0.5,0.1,0.7,0.3C7.9,9.5,8,9.7,8,10v9c0,0.3-0.1,0.5-0.3,0.7
	C7.5,19.9,7.3,20,7,20H5z"/>
</svg>
