<?xml version="1.0" standalone="no"?><!DOCTYPE svg PUBLIC "-//W3C//DTD SVG 1.1//EN" "http://www.w3.org/Graphics/SVG/1.1/DTD/svg11.dtd"><svg t="1720510376579" class="icon" viewBox="0 0 1024 1024" version="1.1" xmlns="http://www.w3.org/2000/svg" p-id="6712" xmlns:xlink="http://www.w3.org/1999/xlink" width="32" height="32"><path d="M348.48 873.6a117.44 117.44 0 0 0 117.44 118.4h85.12a117.44 117.44 0 0 0 117.44-117.44V832h-320z m160-841.6a367.68 367.68 0 0 0-229.44 654.4A184.64 184.64 0 0 1 337.6 768h341.76a184.32 184.32 0 0 1 58.56-81.6A367.68 367.68 0 0 0 508.48 32z m224 376l-96 128a40 40 0 0 1-64 0l-64-85.44-64 85.44a41.28 41.28 0 0 1-64 0l-96-128a40 40 0 0 1 64-48l64 85.44 64-85.44a41.28 41.28 0 0 1 64 0l64 85.44 64-85.44a40 40 0 0 1 64 48z" fill="#231F20" p-id="6713"></path></svg>