<?xml version="1.0" standalone="no"?><!DOCTYPE svg PUBLIC "-//W3C//DTD SVG 1.1//EN" "http://www.w3.org/Graphics/SVG/1.1/DTD/svg11.dtd"><svg t="1720516836253" class="icon" viewBox="0 0 1024 1024" version="1.1" xmlns="http://www.w3.org/2000/svg" p-id="12505" xmlns:xlink="http://www.w3.org/1999/xlink" width="32" height="32"><path d="M910.506667 287.146667l-2.56-2.56a40.746667 40.746667 0 0 0-59.306667 1.706666l-93.013333 104.533334c-87.466667-98.56-209.066667-158.293333-346.453334-158.293334-106.666667 0-206.08 37.12-288 98.133334a41.173333 41.173333 0 0 0-4.693333 61.866666l2.56 2.56c14.08 14.08 36.693333 16.64 52.48 4.693334 67.84-51.2 149.333333-81.92 237.653333-81.92 116.906667 0 217.173333 53.76 288.853334 138.24l-122.88 138.24-140.373334-140.373334c-8.106667-8.106667-18.773333-12.373333-29.866666-12.373333s-22.186667 4.693333-29.866667 12.373333l-261.12 261.546667a40.96 40.96 0 0 0 0 57.6l6.4 6.4c15.786667 15.786667 41.813333 15.786667 57.6 0l226.986667-227.413333 138.666666 138.666666c17.493333 17.493333 45.653333 16.64 61.866667-1.706666l142.933333-160.426667c26.453333 47.786667 46.08 101.973333 56.32 159.146667 3.413333 20.053333 20.053333 34.986667 40.533334 34.986666h3.84c25.6 0 44.8-23.466667 40.106666-48.64a594.346667 594.346667 0 0 0-80.64-213.333333l104.106667-117.333333c14.08-16.213333 13.226667-40.96-2.133333-56.32z" p-id="12506"></path></svg>