<?xml version="1.0" standalone="no"?><!DOCTYPE svg PUBLIC "-//W3C//DTD SVG 1.1//EN" "http://www.w3.org/Graphics/SVG/1.1/DTD/svg11.dtd"><svg t="1720516846802" class="icon" viewBox="0 0 1024 1024" version="1.1" xmlns="http://www.w3.org/2000/svg" p-id="12667" xmlns:xlink="http://www.w3.org/1999/xlink" width="32" height="32"><path d="M512 85.333333C277.333333 85.333333 85.333333 277.333333 85.333333 512s192 426.666667 426.666667 426.666667 426.666667-192 426.666667-426.666667S746.666667 85.333333 512 85.333333z m42.666667 88.32c154.026667 19.2 276.48 142.08 295.68 295.68H597.333333c-23.466667 0-42.666667-19.2-42.666666-42.666666V173.653333zM170.666667 512c0-173.226667 130.986667-317.44 298.666666-338.346667v677.12c-167.68-21.333333-298.666667-165.546667-298.666666-338.773333z m384 338.346667V597.333333c0-23.466667 19.2-42.666667 42.666666-42.666666h253.013334A341.418667 341.418667 0 0 1 554.666667 850.346667z" p-id="12668"></path></svg>