<?xml version="1.0" standalone="no"?><!DOCTYPE svg PUBLIC "-//W3C//DTD SVG 1.1//EN" "http://www.w3.org/Graphics/SVG/1.1/DTD/svg11.dtd"><svg t="1720516907848" class="icon" viewBox="0 0 1024 1024" version="1.1" xmlns="http://www.w3.org/2000/svg" p-id="12829" xmlns:xlink="http://www.w3.org/1999/xlink" width="32" height="32"><path d="M512 85.333333C277.333333 85.333333 85.333333 277.333333 85.333333 512s192 426.666667 426.666667 426.666667 426.666667-192 426.666667-426.666667S746.666667 85.333333 512 85.333333z m0 768c-187.733333 0-341.333333-153.6-341.333333-341.333333s153.6-341.333333 341.333333-341.333333 341.333333 153.6 341.333333 341.333333-153.6 341.333333-341.333333 341.333333z m-8.533333-554.666666c-21.333333 0-34.133333 12.8-34.133334 29.866666v200.533334c0 17.066667 8.533333 29.866667 21.333334 38.4l179.2 106.666666c12.8 8.533333 34.133333 4.266667 42.666666-8.533333 8.533333-12.8 4.266667-34.133333-8.533333-42.666667l-166.4-98.133333V328.533333c-4.266667-17.066667-17.066667-29.866667-34.133333-29.866666z" p-id="12830"></path></svg>